# xmcd CD database file
#
# Track frame offsets:
#	150
#	13393
#	25983
#	36019
#	46784
#	58831
#	71671
#	82655
#	95080
#	104049
#	114852
#	124314
#	135749
#	145451
#	159126
#	174741
#
# Disc length: 2482 seconds
#
# Revision: 2
# Processed by: cddbd v1.5.2PL0 Copyright (c) Steve Scherf et al.
# Submitted via: CDex 1.81
#
DISCID=de09b010
DTITLE=Various Artist - Golden Age of Country - Waltz Across Texas Disc 1
DYEAR=2009
DGENRE=Country
TTITLE0=Hank Williams - Hey, Good Lookin'
TTITLE1=George Jones - White Lighting
TTITLE2=Loretta Lynn - You Ain't Woman Enough
TTITLE3=Leroy Van Dyke - Walk on By
TTITLE4=Ernst Tubb and His Texas Troubadours - Waltz Across Texas
TTITLE5=Conway Twitty - Next in Line
TTITLE6=Roger Miller - King of the Road
TTITLE7=Patsy Cline - Crazy
TTITLE8=Buck Owens - Love's Gonna Live Here
TTITLE9=The Everly Brothers - Bye Bye Love
TTITLE10=Webb Pierce - In the Jailhouse Now
TTITLE11=Kitty Wells - It Wasn't God Who Made Honky Tonk Angles
TTITLE12=Bill Monroe and His Blue Grass Boys - Blue Moon of Kentucky
TTITLE13=Tom T. Hall - A Week in a Country Jail
TTITLE14=Bill Anderson - Mama Sang a Song
TTITLE15=Jack Greene - There Goes My Everything
EXTD=YEAR: 2009
EXTT0=
EXTT1=
EXTT2=
EXTT3=
EXTT4=
EXTT5=
EXTT6=
EXTT7=
EXTT8=
EXTT9=
EXTT10=
EXTT11=
EXTT12=
EXTT13=
EXTT14=
EXTT15=
PLAYORDER=
